<?xml version="1.0" encoding="UTF-8"?>
<svg
  xmlns="http://www.w3.org/2000/svg"
  width="24"
  height="24"
  viewBox="0 0 24 24"
  fill="none"
  stroke="currentColor"
  stroke-width="2"
  stroke-linecap="round"
  stroke-linejoin="round"
>
  <!-- Gear body -->
  <path d="
    M19.14 12.94
    a7.97 7.97 0 0 0 .06-.94
    a7.97 7.97 0 0 0-.06-.94
    l2.03-1.58
    a.5.5 0 0 0 .12-.64
    l-1.92-3.32
    a.5.5 0 0 0-.6-.22
    l-2.39.96
    a7.42 7.42 0 0 0-1.63-.94
    l-.36-2.54
    a.5.5 0 0 0-.5-.42
    h-3.84
    a.5.5 0 0 0-.5.42
    l-.36 2.54
    a7.42 7.42 0 0 0-1.63.94
    l-2.39-.96
    a.5.5 0 0 0-.6.22
    l-1.92 3.32
    a.5.5 0 0 0 .12.64
    l2.03 1.58
    a7.97 7.97 0 0 0-.06.94
    a7.97 7.97 0 0 0 .06.94
    l-2.03 1.58
    a.5.5 0 0 0-.12.64
    l1.92 3.32
    a.5.5 0 0 0 .6.22
    l2.39-.96
    a7.42 7.42 0 0 0 1.63.94
    l.36 2.54
    a.5.5 0 0 0 .5.42
    h3.84
    a.5.5 0 0 0 .5-.42
    l.36-2.54
    a7.42 7.42 0 0 0 1.63-.94
    l2.39.96
    a.5.5 0 0 0 .6-.22
    l1.92-3.32
    a.5.5 0 0 0-.12-.64
    Z
  "/>

  <!-- Center hole -->
  <circle cx="12" cy="12" r="3"/>
</svg>
